<?xml version="1.0" standalone="no"?>
<!DOCTYPE svg PUBLIC "-//W3C//DTD SVG 20010904//EN"
 "http://www.w3.org/TR/2001/REC-SVG-20010904/DTD/svg10.dtd">
<svg version="1.0" xmlns="http://www.w3.org/2000/svg"
 width="300.000000pt" height="281.000000pt" viewBox="0 0 300.000000 281.000000"
 preserveAspectRatio="xMidYMid meet">
<metadata>
Created by potrace 1.10, written by Peter Selinger 2001-2011
</metadata>
<g transform="translate(0.000000,281.000000) scale(0.100000,-0.100000)"
fill="#f48734" stroke="none">
<path d="M0 2143 c0 -12 2 -23 5 -23 22 0 284 -55 335 -70 36 -11 100 -27 143
-35 50 -11 77 -21 77 -30 0 -7 -6 -15 -12 -18 -29 -10 1 -16 33 -6 32 9 161 5
202 -7 18 -6 18 -7 1 -25 -16 -18 -16 -19 5 -19 12 0 31 5 42 10 15 8 23 7 34
-3 13 -14 156 -37 228 -37 23 0 43 -7 54 -19 13 -14 53 -25 138 -41 120 -21
687 -157 778 -186 51 -17 61 -39 25 -53 -108 -40 -248 -79 -266 -74 -17 4 -21
2 -16 -10 4 -12 -7 -19 -53 -32 -32 -8 -112 -33 -179 -55 -67 -22 -134 -40
-151 -40 -39 0 -131 27 -169 51 -17 10 -42 19 -55 19 -41 0 -217 49 -400 110
-97 33 -214 69 -260 81 -46 11 -98 30 -115 40 -17 10 -43 19 -58 19 -14 0 -26
5 -26 10 0 6 4 10 9 10 5 0 13 9 16 20 4 11 19 32 33 45 57 53 -27 10 -101
-52 -29 -24 -57 -30 -57 -14 0 6 17 26 37 45 45 42 39 58 -8 19 -42 -36 -113
-39 -155 -7 -34 25 -44 48 -18 41 11 -4 33 -9 49 -12 29 -6 29 -6 11 9 -19 15
-16 16 44 16 55 0 237 27 250 37 2 2 -2 8 -10 13 -22 14 -71 12 -104 -5 -15
-8 -47 -15 -70 -15 -23 0 -91 -9 -151 -20 -60 -11 -110 -20 -112 -20 -2 0 -3
-8 -3 -17 0 -21 64 -51 190 -89 47 -14 231 -71 410 -126 179 -56 440 -136 580
-178 l255 -77 290 99 c327 112 600 198 627 198 34 0 18 -21 -35 -44 -28 -13
-196 -71 -371 -130 -330 -111 -449 -159 -478 -192 -13 -15 -19 -47 -24 -129
-8 -128 9 -138 24 -14 10 77 28 125 57 149 28 23 27 3 -4 -59 -17 -33 -31 -62
-31 -65 0 -2 15 -9 33 -15 l32 -12 -24 -18 c-15 -11 -21 -23 -16 -31 4 -7 -2
-24 -14 -41 -25 -33 -39 -89 -23 -89 6 0 34 5 63 12 36 8 53 18 57 31 3 11 10
16 19 13 8 -3 56 12 107 34 51 22 109 40 128 40 20 0 41 7 48 15 8 9 21 13 37
9 19 -5 25 -2 30 14 5 22 14 26 76 37 35 6 37 4 37 -20 0 -35 26 -32 34 5 6
34 33 50 47 29 13 -19 3 -78 -16 -99 -12 -14 -13 -20 -4 -26 7 -4 20 2 31 16
23 28 25 112 3 130 -8 7 -15 19 -15 26 0 19 26 18 34 -1 5 -13 10 -13 46 1 33
13 46 14 66 5 44 -20 75 -13 108 23 18 18 42 38 54 45 27 14 27 19 3 51 -17
21 -21 22 -37 10 -9 -8 -25 -14 -35 -12 -22 4 -113 -19 -253 -64 -60 -19 -115
-33 -123 -30 -7 3 -16 -1 -19 -9 -3 -8 -36 -24 -72 -36 -37 -12 -91 -32 -121
-45 -29 -13 -63 -24 -75 -24 -25 0 -64 -25 -54 -35 3 -4 22 -2 42 3 57 16 42
-4 -20 -28 -54 -20 -86 -20 -54 0 11 7 12 14 4 27 -14 23 -34 28 -34 9 0 -9
-11 -26 -25 -38 -14 -12 -25 -29 -25 -39 0 -16 -28 -35 -37 -25 -9 9 30 122
48 138 31 26 24 41 -16 34 -45 -9 -45 0 0 80 26 46 43 65 66 73 46 16 114 14
129 -4 19 -22 32 -18 20 6 -15 27 -7 34 36 30 29 -2 35 0 32 16 -3 15 3 18 35
15 28 -2 37 1 37 13 0 19 5 19 41 -2 33 -20 51 -10 27 14 -18 17 -5 24 172 84
36 12 88 33 115 47 48 24 52 24 82 9 30 -16 83 -92 83 -120 0 -8 -7 -20 -15
-27 -8 -7 -12 -17 -9 -22 3 -5 13 -3 23 6 16 15 19 15 33 -1 29 -33 49 -83 46
-117 -1 -24 6 -44 29 -72 107 -138 165 -253 70 -140 -92 109 -101 117 -146
127 -24 5 -46 7 -50 4 -10 -11 31 -35 59 -35 36 0 73 -28 67 -51 -3 -10 1 -24
9 -30 8 -6 13 -19 12 -28 -2 -11 6 -17 25 -19 29 -4 35 -20 15 -40 -19 -19
-42 -14 -68 13 -23 24 -23 25 -5 45 10 11 16 23 12 26 -12 12 -247 -60 -247
-76 0 -9 47 -30 68 -30 9 0 41 9 70 20 l54 20 30 -25 c34 -29 39 -29 93 -10
61 22 65 20 65 -28 0 -52 6 -60 31 -44 24 15 24 26 2 43 -13 9 -15 16 -7 24 8
8 20 1 43 -25 26 -30 31 -44 29 -73 -3 -34 -5 -37 -30 -34 -16 1 -28 -2 -28
-7 0 -15 -54 -41 -85 -41 -14 0 -39 -9 -54 -21 -32 -23 -92 -31 -98 -11 -3 7
5 12 21 12 27 0 96 53 84 65 -4 4 -64 -20 -134 -54 -70 -34 -125 -64 -122 -66
3 -3 31 1 63 10 32 8 61 13 63 10 8 -7 -85 -46 -126 -52 -20 -3 -76 -23 -124
-44 -48 -21 -111 -44 -141 -52 -51 -14 -57 -13 -86 5 -25 16 -34 18 -46 8 -9
-7 -14 -20 -13 -28 2 -10 -5 -18 -17 -20 -11 -2 -27 -12 -35 -22 -18 -21 -244
-99 -312 -107 -30 -4 -44 -9 -36 -14 19 -12 9 -17 -83 -44 -102 -30 -110 -30
-142 -5 -14 11 -33 20 -42 20 -9 0 -47 13 -85 30 -38 16 -77 30 -88 30 -10 0
-27 9 -36 19 -10 11 -63 36 -119 56 -56 21 -149 59 -206 86 -57 27 -108 49
-113 49 -18 0 -244 104 -275 127 -17 12 -41 23 -52 23 -29 0 -95 24 -186 67
-44 21 -83 39 -87 41 -5 2 -8 -6 -8 -18 0 -26 -36 -9 721 -331 452 -192 595
-249 627 -249 41 0 86 15 887 297 348 122 541 196 573 218 12 9 22 26 22 38
-1 37 -38 107 -62 116 -37 14 -109 102 -114 138 -6 40 -242 481 -281 525 -15
17 -132 49 -175 47 -20 -1 -19 -2 10 -15 28 -12 44 -34 25 -34 -35 0 -85 24
-93 45 -10 26 -49 41 -138 51 -42 6 -56 3 -72 -11 -22 -20 -34 -14 -35 17 0
18 -16 24 -160 53 -132 27 -913 203 -1587 358 l-148 34 0 -24z m605 -143 c3
-5 2 -10 -4 -10 -5 0 -13 5 -16 10 -3 6 -2 10 4 10 5 0 13 -4 16 -10z m315
-70 c13 -8 13 -10 -2 -10 -9 0 -20 5 -23 10 -8 13 5 13 25 0z m327 -76 c-3 -3
-12 -4 -19 -1 -8 3 -5 6 6 6 11 1 17 -2 13 -5z m-1177 -74 c0 -5 -7 -7 -15 -4
-8 4 -15 8 -15 10 0 2 7 4 15 4 8 0 15 -4 15 -10z m1730 -46 c0 -3 -13 -3 -29
-2 -16 1 -28 5 -26 9 5 6 55 0 55 -7z m65 -14 c8 -13 -5 -13 -25 0 -13 8 -13
10 2 10 9 0 20 -4 23 -10z m233 -50 c27 -15 -56 -11 -103 6 l-40 14 63 -5 c35
-3 71 -9 80 -15z m42 -40 c0 -5 10 -12 21 -15 17 -6 19 -9 8 -16 -22 -14 -36
-11 -43 9 -3 9 -9 23 -12 30 -4 8 0 10 10 6 9 -3 16 -10 16 -14z m250 -75 c19
-23 8 -25 -14 -4 -11 11 -15 19 -9 19 6 0 16 -7 23 -15z m-570 -185 c0 -5 -5
-10 -11 -10 -5 0 -7 5 -4 10 3 6 8 10 11 10 2 0 4 -4 4 -10z m-50 -14 c0 -2
-7 -7 -16 -10 -8 -3 -12 -2 -9 4 6 10 25 14 25 6z m685 -67 c-4 -5 -13 -9 -22
-9 -13 0 -13 3 -3 15 13 15 35 11 25 -6z m-118 -32 c-18 -28 -52 -34 -61 -11
-4 9 -5 18 -4 18 18 10 65 22 71 18 5 -2 2 -14 -6 -25z m73 17 c0 -14 -35 -64
-49 -69 -25 -10 -35 12 -12 25 12 6 19 15 16 21 -9 14 4 29 26 29 10 0 19 -3
19 -6z m-164 -50 c-25 -18 -36 -18 -36 1 0 19 32 37 45 24 7 -7 4 -15 -9 -25z
m329 -4 c8 -16 15 -35 15 -42 0 -16 -49 42 -50 60 0 22 19 13 35 -18z m-445
-10 c0 -6 -8 -13 -17 -16 -10 -3 -25 -9 -35 -14 -11 -6 -20 -4 -30 8 -12 15
-11 16 5 3 15 -12 17 -11 17 2 0 14 16 23 48 26 6 0 12 -4 12 -9z m-90 -40 c0
-5 -10 -10 -23 -10 -13 0 -34 -11 -46 -24 -12 -13 -35 -26 -49 -29 -15 -3 -52
-12 -82 -20 -56 -16 -89 -9 -48 10 70 32 127 53 161 59 20 3 37 10 37 15 0 5
11 9 25 9 14 0 25 -4 25 -10z m-400 -145 c11 -13 8 -15 -14 -13 -28 2 -34 13
-13 21 6 3 13 6 13 6 1 1 7 -6 14 -14z m860 0 c0 -2 -10 -9 -22 -15 -22 -11
-22 -10 -4 4 21 17 26 19 26 11z m-50 -19 c0 -3 -4 -8 -10 -11 -5 -3 -10 -1
-10 4 0 6 5 11 10 11 6 0 10 -2 10 -4z m-35 -16 c-3 -5 -16 -10 -28 -10 -18 0
-19 2 -7 10 20 13 43 13 35 0z m-895 -20 c0 -5 -4 -10 -10 -10 -5 0 -10 5 -10
10 0 6 5 10 10 10 6 0 10 -4 10 -10z m470 -439 c0 -7 -65 -31 -83 -31 -3 0 6
13 21 28 20 21 32 26 45 20 9 -5 17 -12 17 -17z"/>
<path d="M32 2039 c-17 -5 -32 -14 -32 -19 0 -12 0 -12 39 1 17 6 31 15 31 20
0 5 -1 9 -2 8 -2 0 -18 -5 -36 -10z"/>
<path d="M368 1943 c-10 -2 -18 -9 -18 -15 0 -10 68 -2 105 13 14 5 7 8 -25 7
-25 0 -53 -2 -62 -5z"/>
<path d="M243 1917 c-18 -7 -38 -18 -45 -26 -11 -11 -8 -13 17 -8 17 3 50 15
75 26 42 18 43 20 15 20 -16 0 -44 -6 -62 -12z"/>
<path d="M535 1905 c-38 -14 -56 -22 -40 -20 17 3 78 8 138 11 104 7 131 15
85 28 -45 12 -114 4 -183 -19z"/>
<path d="M630 1850 c18 -12 374 -12 410 0 14 5 -72 8 -200 9 -149 0 -220 -3
-210 -9z"/>
<path d="M578 1763 c-10 -2 -18 -9 -18 -15 0 -13 80 -2 95 13 9 9 -43 11 -77
2z"/>
<path d="M880 1760 c0 -5 18 -10 40 -10 22 0 40 5 40 10 0 6 -18 10 -40 10
-22 0 -40 -4 -40 -10z"/>
<path d="M1065 1745 c-5 -2 -71 -22 -145 -45 -222 -67 -190 -80 50 -19 130 33
160 44 160 59 0 9 -42 13 -65 5z"/>
<path d="M680 1723 c-37 -6 -80 -24 -80 -34 0 -12 18 -11 60 2 19 6 60 17 90
24 l55 13 -50 0 c-27 -1 -61 -3 -75 -5z"/>
<path d="M1305 1721 c-3 -5 -1 -12 5 -16 12 -7 30 2 30 16 0 12 -27 12 -35 0z"/>
<path d="M1168 1693 c-21 -5 -24 -23 -4 -23 24 0 46 12 40 21 -5 9 -8 10 -36
2z"/>
<path d="M2 1663 c3 -24 11 -30 78 -50 41 -13 135 -39 209 -58 73 -19 145 -42
160 -52 14 -9 73 -29 131 -44 58 -15 150 -39 205 -53 55 -14 118 -34 140 -45
50 -24 226 -78 282 -87 24 -3 48 -13 54 -20 6 -8 20 -14 30 -14 76 0 116 -94
68 -161 -23 -32 -12 -40 15 -10 21 23 42 136 32 174 -5 23 -10 26 -32 21 -17
-4 -29 -2 -34 6 -4 7 -54 25 -111 40 -57 16 -158 47 -224 70 -123 42 -294 90
-324 90 -9 0 -32 8 -52 19 -19 10 -71 29 -114 41 -44 12 -91 28 -105 35 -14 7
-57 20 -95 28 -39 9 -124 34 -189 56 -66 23 -121 41 -123 41 -3 0 -3 -12 -1
-27z"/>
<path d="M1319 1665 c-48 -13 -114 -35 -147 -48 -41 -17 -63 -22 -70 -15 -20
20 -122 -19 -122 -46 0 -13 61 -5 66 9 4 10 21 15 53 15 49 1 81 7 206 38 44
11 94 24 110 27 17 4 24 10 18 12 -27 10 -11 18 28 15 29 -3 40 -1 35 7 -11
17 -83 12 -177 -14z"/>
<path d="M1521 1626 c-14 -17 -1 -28 19 -16 11 7 12 12 4 20 -8 8 -14 7 -23
-4z"/>
<path d="M1325 1554 c-27 -7 -81 -13 -118 -13 -43 -1 -66 -5 -62 -11 7 -11
134 -12 175 -1 30 7 67 28 60 33 -3 2 -27 -1 -55 -8z"/>
<path d="M2273 1487 c-24 -11 -43 -27 -43 -33 0 -25 22 -25 55 0 35 27 55 33
55 16 0 -12 40 -34 48 -26 7 8 -48 66 -62 65 -6 0 -30 -10 -53 -22z"/>
<path d="M2166 1461 c-4 -6 -1 -19 6 -30 9 -15 9 -28 0 -57 -21 -70 16 -82
103 -33 72 41 77 51 24 47 -35 -2 -45 -7 -48 -23 -4 -23 -18 -35 -42 -35 -13
0 -15 12 -15 67 1 42 -3 68 -11 70 -6 2 -14 0 -17 -6z"/>
<path d="M2104 1426 c-6 -17 2 -36 17 -36 12 0 12 37 -1 45 -6 3 -13 -1 -16
-9z"/>
<path d="M2305 1431 c-6 -11 33 -36 42 -27 3 3 3 12 0 21 -7 17 -33 20 -42 6z"/>
<path d="M2034 1375 c-11 -48 -6 -56 18 -27 26 30 28 39 10 55 -17 15 -18 13
-28 -28z"/>
<path d="M2091 1341 c-8 -5 -3 -15 14 -31 l25 -23 0 25 c0 27 -19 41 -39 29z"/>
<path d="M1988 1335 c-2 -3 -2 -22 1 -43 7 -42 27 -41 24 2 -1 28 -15 51 -25
41z"/>
<path d="M1855 1297 c-33 -18 -59 -38 -57 -45 1 -7 -5 -29 -13 -48 -18 -45
-18 -44 0 -44 8 0 15 3 15 8 0 4 10 23 21 42 20 31 22 33 34 16 9 -11 23 -16
42 -14 30 3 39 23 23 48 -8 13 -12 12 -25 -8 -18 -25 -35 -21 -35 9 0 28 43
46 76 30 32 -14 34 -13 23 17 -11 30 -33 28 -104 -11z"/>
<path d="M1660 1291 c-7 -13 -7 -22 0 -26 13 -8 30 3 30 20 0 23 -18 27 -30 6z"/>
<path d="M2064 1299 c-10 -17 13 -36 27 -22 12 12 4 33 -11 33 -5 0 -12 -5
-16 -11z"/>
<path d="M1712 1253 c2 -10 10 -18 18 -18 22 0 18 29 -3 33 -14 3 -18 -1 -15
-15z"/>
<path d="M2451 1227 c-6 -8 -8 -16 -5 -20 10 -9 34 4 34 19 0 18 -14 18 -29 1z"/>
<path d="M1623 1213 c-23 -9 -15 -35 10 -31 12 2 22 9 22 17 0 16 -14 22 -32
14z"/>
<path d="M1730 1180 c0 -18 4 -29 10 -25 6 3 10 15 10 25 0 10 -4 22 -10 25
-6 4 -10 -7 -10 -25z"/>
<path d="M1664 1145 c-4 -14 -3 -29 0 -33 9 -8 26 18 26 41 0 26 -19 20 -26
-8z"/>
<path d="M2235 1160 c-9 -15 3 -30 25 -30 15 0 30 18 30 36 0 9 -49 3 -55 -6z"/>
<path d="M2300 1135 c0 -3 18 -17 40 -31 39 -26 41 -26 60 -9 21 19 27 45 10
45 -5 0 -13 -8 -19 -17 -9 -17 -10 -17 -28 0 -18 15 -63 24 -63 12z"/>
<path d="M0 1096 c0 -11 82 -47 98 -43 12 2 6 8 -19 19 -49 21 -79 30 -79 24z"/>
<path d="M2240 1081 c0 -11 -12 -34 -26 -51 -38 -44 -24 -47 31 -5 33 25 53
34 67 29 15 -4 19 -2 16 7 -3 8 -19 15 -36 17 -18 2 -32 7 -32 13 0 5 -4 9
-10 9 -5 0 -10 -9 -10 -19z"/>
<path d="M2008 1071 c-7 -12 -23 -21 -36 -21 -15 0 -22 -5 -19 -12 2 -7 15
-11 28 -9 37 5 81 31 76 44 -7 21 -35 19 -49 -2z"/>
<path d="M2059 1021 c-41 -22 -44 -45 -7 -49 52 -6 87 30 55 56 -10 9 -22 7
-48 -7z"/>
<path d="M1882 1014 c-15 -10 -21 -22 -17 -33 3 -10 -4 -29 -15 -44 -24 -30
-26 -47 -5 -47 8 0 15 6 15 14 0 9 7 12 20 9 11 -3 27 -2 36 1 15 6 15 9 -4
27 -21 19 -21 22 -7 49 23 45 17 52 -23 24z"/>
<path d="M1367 1004 c-2 -5 -8 -54 -12 -109 -3 -55 -9 -108 -11 -117 -3 -10
-1 -18 4 -18 15 0 46 214 35 235 -6 10 -13 14 -16 9z"/>
<path d="M1801 989 c-14 -11 -26 -30 -27 -42 -1 -12 -3 -25 -3 -29 -1 -5 -17
-26 -37 -48 -42 -46 -25 -55 23 -12 31 27 88 138 75 146 -4 2 -18 -5 -31 -15z"/>
<path d="M1951 981 c-18 -12 4 -53 27 -49 25 5 29 58 5 58 -10 0 -24 -4 -32
-9z"/>
<path d="M282 968 c3 -7 15 -14 29 -16 23 -2 23 -2 5 13 -24 18 -39 20 -34 3z"/>
<path d="M1685 961 c-8 -15 3 -31 21 -31 9 0 14 7 12 17 -4 20 -24 28 -33 14z"/>
<path d="M1980 889 c-284 -97 -347 -116 -357 -105 -4 4 4 18 20 30 31 25 39
64 9 45 -10 -6 -29 -27 -42 -46 -19 -28 -21 -37 -11 -59 6 -14 11 -26 11 -27
0 -1 -21 -1 -48 1 -56 4 -97 -21 -107 -68 -10 -45 2 -54 39 -30 19 11 40 20
49 20 8 0 17 7 21 15 3 8 17 15 31 15 16 0 44 18 80 50 30 28 57 50 59 50 2 0
34 11 72 25 81 29 74 28 74 11 0 -8 -17 -20 -37 -26 -21 -7 -48 -19 -60 -26
-20 -13 -23 -13 -23 1 0 13 -3 13 -19 -2 -26 -25 -43 -72 -36 -101 7 -27 25
-20 25 10 0 29 55 76 103 89 23 5 87 28 143 49 55 22 126 43 158 48 40 7 62
15 72 31 22 31 67 28 93 -6 l20 -28 1 26 c0 14 5 30 12 37 9 9 9 12 -4 12 -8
0 -27 9 -41 20 -14 11 -36 20 -49 20 -12 0 -129 -37 -258 -81z m260 51 c0 -5
-5 -10 -12 -10 -6 0 -22 -10 -35 -22 -12 -12 -37 -23 -55 -25 -18 -2 -61 -12
-96 -23 -35 -11 -68 -18 -73 -14 -6 3 -17 -3 -25 -15 -15 -21 -44 -29 -44 -12
0 17 26 29 140 66 63 20 131 43 150 50 43 17 50 18 50 5z m-590 -200 c-13 -11
-24 -20 -24 -20 -1 0 -2 9 -2 20 0 15 7 20 25 20 l24 0 -23 -20z m-95 -48
c-11 -10 -32 -24 -47 -30 -23 -9 -28 -9 -28 3 0 16 45 42 75 44 19 1 19 1 0
-17z"/>
<path d="M360 950 c0 -5 9 -10 20 -10 11 0 20 5 20 10 0 6 -9 10 -20 10 -11 0
-20 -4 -20 -10z"/>
<path d="M2450 946 c0 -8 14 -24 30 -36 17 -12 30 -28 30 -36 0 -16 -35 -19
-45 -4 -9 15 -37 -1 -30 -18 3 -8 -3 -20 -12 -27 -10 -8 -14 -17 -10 -21 9 -9
237 106 237 120 0 4 -12 4 -27 0 -53 -16 -110 -10 -136 14 -27 26 -37 28 -37
8z"/>
<path d="M55 940 c8 -14 73 -45 110 -54 16 -4 33 -12 36 -18 4 -6 21 -12 38
-13 27 -2 44 -11 97 -50 9 -6 17 -6 25 2 8 8 -6 19 -53 42 -81 39 -261 104
-253 91z"/>
<path d="M430 930 c0 -14 81 -51 93 -43 11 6 -60 53 -80 53 -7 0 -13 -5 -13
-10z"/>
<path d="M310 906 c8 -8 26 -17 40 -20 l25 -7 -24 20 c-27 25 -66 31 -41 7z"/>
<path d="M1424 905 c-3 -8 -3 -19 1 -25 11 -18 25 -11 25 15 0 27 -17 34 -26
10z"/>
<path d="M1583 904 c-8 -21 13 -42 28 -27 13 13 5 43 -11 43 -6 0 -13 -7 -17
-16z"/>
<path d="M2380 904 c-15 -17 -31 -104 -20 -104 8 0 25 38 39 88 10 34 2 42
-19 16z"/>
<path d="M1480 865 c-12 -38 -6 -59 16 -51 21 8 28 -13 9 -34 -10 -11 -12 -20
-6 -24 10 -7 61 53 61 72 0 6 -12 12 -27 14 -24 3 -28 7 -25 31 4 38 -14 34
-28 -8z"/>
<path d="M1695 889 c-12 -19 5 -23 22 -6 16 16 16 17 1 17 -9 0 -20 -5 -23
-11z"/>
<path d="M2211 854 c-33 -28 -39 -44 -17 -44 20 0 66 39 66 56 0 21 -15 17
-49 -12z"/>
<path d="M2620 861 c-7 -13 -7 -22 0 -26 13 -8 30 3 30 20 0 23 -18 27 -30 6z"/>
<path d="M1405 830 c-3 -5 1 -13 10 -16 13 -5 15 -14 10 -41 -5 -27 -3 -34 7
-31 20 7 17 92 -4 96 -9 2 -19 -2 -23 -8z"/>
<path d="M2262 814 c-12 -8 -22 -24 -22 -35 0 -22 15 -26 23 -5 4 9 14 12 25
9 25 -6 38 13 22 32 -16 19 -20 19 -48 -1z"/>
<path d="M2095 797 c-8 -13 -18 -38 -21 -55 -4 -18 -11 -35 -15 -38 -16 -9 -9
-24 11 -24 10 0 23 -6 27 -14 4 -8 17 -16 28 -18 11 -2 19 -10 18 -16 -3 -14
26 -16 46 -3 11 7 9 10 -8 16 -11 3 -21 13 -21 21 0 8 -7 14 -15 14 -32 0 -44
69 -20 123 11 25 -12 21 -30 -6z"/>
<path d="M400 796 c0 -15 24 -28 34 -19 7 7 -13 33 -25 33 -5 0 -9 -6 -9 -14z"/>
<path d="M462 774 c1 -9 9 -19 16 -22 9 -3 13 2 10 14 -1 9 -9 19 -16 22 -9 3
-13 -2 -10 -14z"/>
<path d="M2011 764 c-12 -15 -21 -33 -21 -40 0 -8 -16 -32 -36 -54 -35 -38
-29 -55 8 -26 18 13 88 123 88 138 0 16 -19 7 -39 -18z"/>
<path d="M2167 764 c-14 -14 -7 -25 13 -22 12 2 21 8 21 13 0 12 -24 18 -34 9z"/>
<path d="M1901 726 c-15 -26 -12 -57 5 -63 11 -4 34 46 34 73 0 23 -26 16 -39
-10z"/>
<path d="M572 718 c3 -7 18 -15 34 -19 16 -3 49 -16 73 -28 53 -28 272 -104
278 -97 8 7 -60 39 -215 100 -145 57 -177 65 -170 44z"/>
<path d="M2217 714 c-4 -4 -7 -19 -7 -33 l0 -25 16 23 c15 21 7 51 -9 35z"/>
<path d="M1327 691 c-2 -10 -1 -25 4 -32 6 -10 9 -4 9 19 0 36 -5 42 -13 13z"/>
<path d="M1789 673 c-30 -25 -79 -112 -79 -140 0 -26 20 -12 35 23 8 19 33 56
55 81 58 66 51 88 -11 36z"/>
<path d="M2253 685 c-3 -9 -3 -18 0 -21 9 -9 27 6 27 22 0 19 -19 18 -27 -1z"/>
<path d="M1630 625 c-7 -9 -10 -18 -7 -21 10 -10 47 7 47 22 0 19 -24 18 -40
-1z"/>
<path d="M1825 600 c-21 -22 -36 -43 -32 -47 8 -7 63 42 78 70 16 29 -5 19
-46 -23z"/>
<path d="M1993 624 c-17 -44 56 -54 93 -13 18 19 17 20 -24 13 -28 -4 -42 -3
-42 5 0 17 -20 13 -27 -5z"/>
<path d="M1320 586 c0 -39 12 -52 29 -32 9 10 9 20 0 40 -17 36 -29 33 -29 -8z"/>
<path d="M1545 596 c-16 -12 -17 -17 -8 -27 16 -16 67 5 60 24 -6 18 -30 20
-52 3z"/>
<path d="M1657 562 c-10 -10 -14 -22 -10 -25 7 -8 43 21 43 35 0 14 -16 9 -33
-10z"/>
<path d="M1020 555 c0 -8 113 -61 168 -80 66 -21 80 -12 20 14 -68 29 -188 71
-188 66z"/>
<path d="M1475 519 c-17 -32 -17 -96 0 -91 10 2 43 84 44 110 2 24 -29 12 -44
-19z"/>
<path d="M1583 527 c-11 -12 -28 -34 -38 -49 -15 -24 -15 -28 -2 -28 13 0 47
38 70 77 13 22 -10 22 -30 0z"/>
<path d="M1396 514 c-12 -32 -5 -82 15 -108 25 -32 45 -24 23 10 -12 18 -15
37 -11 69 5 35 3 45 -7 45 -8 0 -17 -7 -20 -16z"/>
<path d="M1774 520 c-30 -12 -39 -30 -16 -30 11 0 30 9 43 20 26 21 12 26 -27
10z"/>
<path d="M1613 483 c-18 -7 -16 -30 2 -37 18 -6 75 12 95 30 12 12 7 14 -35
13 -28 0 -56 -3 -62 -6z"/>
<path d="M1280 431 c0 -31 14 -49 25 -32 8 13 -5 61 -16 61 -5 0 -9 -13 -9
-29z"/>
</g>
</svg>
