<?xml version="1.0" standalone="no"?> <!DOCTYPE svg PUBLIC "-//W3C//DTD SVG 20010904//EN" "http://www.w3.org/TR/2001/REC-SVG-20010904/DTD/svg10.dtd"> <svg version="1.0" xmlns="http://www.w3.org/2000/svg" width="300.000000pt" height="160.000000pt" viewBox="0 0 300.000000 160.000000" preserveAspectRatio="xMidYMid meet">  <g transform="translate(0.000000,160.000000) scale(0.100000,-0.100000)" fill="#f48839" stroke="none"> <path d="M575 1255 c-33 -12 -87 -35 -120 -51 -57 -26 -58 -28 -30 -31 29 -4 67 -15 375 -109 80 -24 190 -58 245 -75 55 -16 142 -43 194 -60 51 -16 101 -29 110 -29 9 0 21 -4 27 -8 5 -5 45 -19 89 -31 44 -13 105 -31 135 -41 30 -10 89 -28 130 -40 41 -12 100 -31 130 -41 30 -10 103 -32 163 -49 l107 -32 240 81 c236 79 270 89 270 73 0 -9 -49 -27 -235 -88 -209 -68 -265 -93 -266 -118 -1 -12 -3 -43 -5 -69 -2 -27 -1 -46 4 -43 4 3 9 26 11 51 1 30 9 55 22 68 22 24 24 13 4 -23 -18 -32 -18 -40 0 -40 8 0 15 -4 15 -10 0 -5 -5 -10 -11 -10 -6 0 -9 -6 -6 -14 3 -8 -1 -20 -9 -26 -8 -7 -14 -21 -14 -32 0 -15 4 -18 18 -13 9 5 25 8 35 9 9 0 17 6 17 14 0 7 4 11 10 7 5 -3 17 -1 27 4 50 26 96 42 109 37 8 -3 14 -1 14 5 0 6 10 9 23 7 13 -2 21 2 19 10 -1 6 4 12 12 12 8 0 21 3 30 6 11 4 16 1 16 -10 0 -9 5 -16 10 -16 6 0 10 9 10 20 0 11 7 20 15 20 18 0 17 -50 0 -62 -5 -4 -6 -10 -2 -14 4 -4 13 0 20 10 14 20 11 76 -5 76 -5 0 -6 5 -2 11 5 8 9 8 14 -1 6 -9 13 -9 29 -1 15 8 27 9 41 1 20 -11 60 5 60 23 0 4 9 11 20 15 19 7 19 9 5 27 -12 14 -18 16 -21 7 -3 -6 -10 -10 -15 -7 -9 6 -88 -14 -162 -41 -21 -8 -43 -12 -48 -9 -5 4 -9 2 -9 -4 0 -6 -18 -15 -39 -21 -22 -6 -52 -17 -68 -25 -15 -8 -36 -15 -45 -15 -9 0 -20 -5 -24 -11 -5 -9 1 -10 22 -5 19 4 24 3 14 -3 -21 -12 -68 -25 -52 -13 10 7 10 11 -3 22 -12 10 -15 10 -15 -3 0 -8 -7 -18 -16 -21 -8 -3 -13 -10 -10 -15 3 -5 -1 -12 -10 -15 -12 -5 -15 -2 -10 10 3 9 9 27 12 40 3 13 10 24 15 24 5 0 9 5 9 11 0 6 -9 9 -20 6 -18 -4 -20 -2 -14 16 4 12 10 24 14 27 3 3 9 13 13 22 8 23 72 34 94 17 15 -12 16 -12 10 5 -6 16 -3 18 18 13 20 -3 25 -1 20 10 -4 12 0 14 21 9 17 -5 23 -3 19 4 -9 14 8 13 23 -2 6 -6 15 -8 19 -4 4 4 1 11 -7 16 -11 7 -12 10 -2 10 7 0 33 9 57 20 24 11 54 21 67 23 13 1 29 8 36 15 23 21 50 13 72 -23 18 -29 20 -38 10 -50 -8 -9 -8 -15 -2 -15 6 0 12 5 14 12 2 6 13 -5 25 -24 12 -21 18 -41 13 -48 -5 -8 -2 -19 6 -27 18 -19 74 -100 74 -108 0 -10 -32 24 -56 58 -14 21 -30 31 -54 34 -32 3 -33 2 -15 -11 11 -8 23 -12 28 -9 11 6 38 -17 32 -27 -3 -5 -1 -11 5 -15 6 -4 8 -11 5 -16 -4 -5 3 -9 14 -9 14 0 19 -5 15 -15 -8 -19 -28 -19 -45 1 -10 13 -10 17 0 24 32 19 -12 18 -73 -4 -63 -22 -65 -23 -41 -34 19 -9 32 -8 60 4 29 12 36 12 41 1 5 -15 30 -19 54 -10 25 10 39 11 39 5 -1 -4 -1 -18 0 -31 1 -20 3 -22 17 -10 10 8 12 15 5 17 -6 2 -11 8 -11 13 0 19 29 -4 39 -32 10 -29 1 -46 -19 -34 -5 3 -10 2 -10 -4 0 -10 -39 -27 -54 -22 -5 1 -12 -2 -15 -8 -10 -15 -61 -25 -61 -11 0 6 4 8 10 5 10 -6 57 31 49 40 -3 2 -41 -14 -84 -36 -44 -22 -69 -37 -55 -34 14 4 36 9 50 11 23 4 22 3 -5 -11 -16 -8 -38 -14 -48 -15 -10 0 -34 -8 -55 -18 -20 -10 -56 -25 -80 -32 -36 -11 -45 -11 -52 0 -4 7 -15 10 -25 7 -9 -4 -13 -11 -10 -17 3 -5 0 -10 -9 -10 -8 0 -16 -5 -18 -12 -2 -6 -11 -12 -19 -14 -7 -1 -43 -13 -79 -26 -36 -13 -74 -23 -85 -21 -15 3 -16 2 -7 -5 10 -7 1 -12 -31 -20 -24 -7 -51 -14 -59 -17 -9 -4 -22 1 -31 9 -8 8 -17 13 -19 11 -3 -3 -23 4 -46 15 -22 11 -48 20 -57 20 -8 0 -15 4 -15 9 0 4 -30 18 -67 31 -36 12 -87 33 -111 46 -25 13 -49 24 -54 24 -4 0 -30 10 -56 21 -26 12 -62 28 -79 36 -18 8 -33 18 -33 23 0 5 -6 7 -14 4 -12 -5 -76 20 -148 57 -10 5 -25 9 -33 9 -8 0 -15 5 -15 10 0 6 -6 10 -12 10 -23 0 -168 62 -168 72 0 5 -4 7 -9 3 -6 -3 -37 8 -70 24 -33 16 -62 26 -65 23 -4 -3 -6 0 -6 7 0 7 -4 9 -10 6 -5 -3 -10 -1 -10 5 0 6 -4 8 -10 5 -5 -3 -10 -1 -10 5 0 7 -6 10 -12 7 -13 -4 -68 18 -173 68 -27 13 -63 27 -78 31 -22 5 -26 9 -15 16 10 8 9 9 -4 4 -24 -7 -50 3 -41 17 3 6 1 7 -6 3 -7 -4 -32 2 -56 13 -25 12 -49 21 -55 21 -5 0 -10 5 -10 10 0 6 -3 9 -7 8 -20 -5 -73 15 -67 24 4 6 3 8 -3 5 -12 -7 -63 14 -63 26 0 5 -5 5 -11 1 -7 -4 -10 -1 -7 7 6 15 10 15 43 4 11 -4 5 3 -14 15 -37 24 -55 17 -49 -20 3 -22 53 -46 573 -265 83 -34 242 -102 355 -149 113 -48 214 -91 225 -96 11 -5 101 -44 200 -85 99 -42 233 -99 297 -126 116 -50 117 -50 160 -36 89 31 507 177 598 210 141 51 170 64 170 81 0 25 -22 66 -35 66 -7 0 -25 16 -39 35 -15 19 -25 35 -22 35 12 0 -139 282 -157 294 -12 8 -42 16 -67 19 -35 5 -40 4 -21 -4 31 -12 21 -22 -13 -13 -16 4 -25 12 -22 19 3 8 -14 16 -52 24 -38 8 -58 8 -60 1 -2 -5 -8 -10 -14 -10 -6 0 -8 6 -5 13 3 8 0 14 -6 15 -25 2 -122 22 -382 82 -148 33 -317 72 -375 85 -360 81 -600 136 -874 200 -60 14 -109 25 -110 24 0 0 -28 -11 -61 -24z m243 -38 c57 -12 101 -25 98 -27 -2 -3 17 -6 42 -8 25 -1 49 -8 53 -14 4 -6 14 -8 24 -5 10 4 14 3 10 -4 -4 -6 3 -9 17 -8 12 1 39 1 58 0 l35 -3 -35 -8 c-84 -21 -341 -61 -350 -55 -6 4 -8 11 -5 16 4 5 -5 9 -19 9 -22 0 -91 18 -241 64 l-40 12 45 17 c25 9 52 18 60 19 8 2 21 9 29 17 18 16 72 11 219 -22z m430 -105 c2 -7 16 -12 30 -12 34 0 243 -39 257 -48 5 -4 12 -7 15 -7 40 -6 97 -18 104 -22 4 -3 2 -10 -5 -15 -9 -6 -3 -7 18 -3 33 7 138 -5 116 -12 -7 -3 -13 -9 -13 -14 0 -5 11 -4 26 1 14 6 23 6 20 1 -5 -7 37 -14 146 -24 9 -1 14 -5 12 -9 -3 -4 12 -10 33 -13 67 -10 146 -27 213 -45 36 -10 108 -28 161 -40 110 -25 132 -35 109 -50 -8 -5 -22 -10 -31 -10 -9 0 -36 -9 -59 -19 -24 -11 -50 -17 -58 -13 -10 3 -13 1 -9 -6 5 -7 -13 -15 -49 -22 -32 -7 -78 -21 -103 -32 -39 -16 -51 -18 -93 -8 -26 7 -51 16 -54 21 -3 5 -14 9 -25 9 -22 0 -161 37 -194 51 -30 13 -177 58 -203 62 -12 2 -28 9 -34 15 -7 7 -21 12 -32 13 -12 0 -15 3 -8 6 6 2 12 9 12 15 0 6 8 17 18 25 15 13 14 13 -8 2 -14 -6 -35 -21 -47 -32 -13 -11 -26 -17 -30 -13 -5 4 2 16 15 26 12 10 22 22 22 26 0 4 -11 -3 -24 -15 -26 -24 -67 -21 -95 7 -13 13 -11 14 20 8 25 -4 29 -4 14 3 -16 8 -10 10 25 9 25 -1 56 2 70 7 14 4 35 7 47 7 13 0 20 4 17 9 -7 13 -61 11 -69 -2 -4 -6 -14 -8 -21 -5 -8 3 -48 -2 -88 -10 -73 -16 -153 -13 -141 6 3 5 -16 12 -42 16 -27 3 -57 11 -68 17 -11 6 -27 11 -35 12 -8 1 -31 7 -50 13 -19 7 -54 17 -78 22 -29 8 -40 15 -35 23 12 20 12 38 0 34 -7 -2 -12 -9 -12 -14 0 -6 -4 -15 -9 -20 -5 -5 -6 -3 -2 5 9 15 1 15 -26 1 -27 -15 -36 -3 -12 17 21 17 19 17 -36 -3 -12 -5 -13 -3 -2 8 7 7 27 15 45 16 43 4 68 9 90 18 9 4 24 5 32 1 8 -3 29 1 47 10 39 17 160 14 166 -4z m1227 -262 c27 -7 27 -8 5 -8 -14 0 -36 4 -50 8 -20 6 -21 8 -5 8 11 0 34 -4 50 -8z m175 -239 c-11 -22 -30 -28 -30 -11 0 6 5 10 11 10 5 0 8 4 5 9 -4 5 0 11 6 14 19 6 21 1 8 -22z m-75 -1 c-3 -5 -11 -10 -16 -10 -6 0 -7 5 -4 10 3 6 11 10 16 10 6 0 7 -4 4 -10z m-69 -17 c-10 -11 -37 -12 -30 -2 3 5 12 9 21 9 9 0 13 -3 9 -7z m-49 -19 c-3 -3 -12 -4 -19 -1 -8 3 -5 6 6 6 11 1 17 -2 13 -5z"/> <path d="M930 1143 c-14 -3 -29 -9 -35 -15 -7 -7 -2 -9 15 -4 14 3 35 6 48 6 12 0 22 5 22 10 0 10 -6 11 -50 3z"/> <path d="M848 1113 c6 -2 18 -2 25 0 6 3 1 5 -13 5 -14 0 -19 -2 -12 -5z"/> <path d="M775 1100 c-8 -13 5 -13 25 0 13 8 13 10 -2 10 -9 0 -20 -4 -23 -10z"/> <path d="M1130 1100 c20 -13 33 -13 25 0 -3 6 -14 10 -23 10 -15 0 -15 -2 -2 -10z"/> <path d="M1178 1103 c7 -3 16 -2 19 1 4 3 -2 6 -13 5 -11 0 -14 -3 -6 -6z"/> <path d="M1255 1070 c-3 -5 -21 -10 -38 -10 -18 -1 -59 -7 -92 -15 l-60 -15 60 7 c33 3 76 8 95 10 19 3 49 5 65 5 25 0 27 1 10 8 -19 7 -18 8 5 12 22 5 21 5 -7 7 -17 0 -35 -3 -38 -9z"/> <path d="M1060 1060 c-11 -8 -7 -9 15 -4 37 8 45 14 19 14 -10 0 -26 -5 -34 -10z"/> <path d="M1288 1030 c-86 -18 -159 -46 -93 -37 47 8 185 44 192 51 8 8 3 7 -99 -14z"/> <path d="M1540 988 c0 -4 15 -5 33 -1 46 8 48 14 4 11 -20 -1 -37 -6 -37 -10z"/> <path d="M1258 983 c6 -2 18 -2 25 0 6 3 1 5 -13 5 -14 0 -19 -2 -12 -5z"/> <path d="M1463 973 c-23 -18 2 -17 42 1 l30 13 -27 -1 c-15 0 -35 -7 -45 -13z"/> <path d="M1640 974 l-35 -13 35 5 c19 3 55 5 80 5 33 -1 41 1 30 9 -21 13 -68 11 -110 -6z"/> <path d="M1683 944 c7 -7 239 -6 246 1 2 3 -53 5 -124 5 -71 0 -126 -3 -122 -6z"/> <path d="M1655 890 c-4 -7 3 -8 22 -4 38 9 42 14 10 14 -14 0 -29 -5 -32 -10z"/> <path d="M1833 893 c9 -2 25 -2 35 0 9 3 1 5 -18 5 -19 0 -27 -2 -17 -5z"/> <path d="M1900 880 c-14 -5 -54 -18 -90 -29 -76 -24 -42 -27 45 -5 33 9 70 18 83 21 12 3 25 9 28 14 6 11 -32 10 -66 -1z"/> <path d="M1690 868 c-16 -7 -20 -12 -12 -15 8 -3 24 0 35 5 12 6 36 13 52 15 24 3 22 4 -10 5 -22 0 -51 -4 -65 -10z"/> <path d="M2060 869 c0 -5 5 -7 10 -4 6 3 10 8 10 11 0 2 -4 4 -10 4 -5 0 -10 -5 -10 -11z"/> <path d="M1976 851 c-4 -5 3 -7 14 -4 23 6 26 13 6 13 -8 0 -17 -4 -20 -9z"/> <path d="M2055 841 c-33 -10 -70 -23 -82 -29 -16 -9 -23 -9 -23 -2 0 14 -39 3 -60 -16 -12 -12 -11 -14 8 -14 12 0 22 4 22 9 0 5 10 9 23 9 34 -1 86 8 94 15 3 4 28 10 55 13 35 5 46 10 36 16 -9 7 -5 8 14 5 15 -2 25 0 22 4 -7 13 -40 9 -109 -10z"/> <path d="M2175 820 c-3 -5 -1 -10 4 -10 6 0 11 5 11 10 0 6 -2 10 -4 10 -3 0 -8 -4 -11 -10z"/> <path d="M2050 779 c-25 -5 -54 -7 -64 -5 -13 3 -16 2 -8 -6 12 -12 109 -1 118 13 3 5 4 9 2 8 -2 -1 -23 -5 -48 -10z"/> <path d="M385 1138 c-3 -13 -16 -68 -30 -123 -13 -55 -22 -101 -20 -103 8 -9 36 8 30 18 -3 5 -3 15 1 22 4 6 8 23 9 37 2 14 8 46 15 71 7 25 11 47 10 49 -1 2 3 7 9 11 13 7 4 40 -10 40 -5 0 -11 -10 -14 -22z"/> <path d="M427 1126 c-4 -10 3 -17 23 -21 16 -4 33 -6 36 -5 4 1 10 -2 13 -8 5 -8 72 -25 136 -35 11 -2 30 -9 42 -15 12 -7 31 -12 42 -12 12 0 21 -4 21 -10 0 -7 50 -22 82 -25 3 0 10 -3 14 -7 4 -5 17 -8 28 -8 12 0 78 -20 149 -44 70 -24 127 -42 127 -39 0 3 6 1 13 -5 10 -8 61 -24 92 -28 6 0 17 -4 25 -7 73 -28 239 -78 270 -82 27 -3 60 -17 60 -25 0 -4 8 -7 18 -7 9 1 51 -10 92 -23 41 -13 84 -24 95 -24 11 -1 22 -4 25 -7 8 -10 156 -59 179 -59 11 0 23 -4 26 -10 3 -5 17 -10 30 -10 34 0 50 -61 23 -89 -11 -10 -10 -11 3 -6 10 4 19 23 23 52 7 50 1 67 -20 59 -8 -3 -14 -1 -14 4 0 6 -7 10 -16 10 -15 0 -101 25 -139 40 -42 17 -158 51 -193 56 -20 3 -39 9 -42 14 -3 4 -29 13 -58 20 -28 6 -54 16 -57 20 -3 4 -26 11 -52 15 -27 4 -52 10 -58 15 -5 4 -59 22 -120 39 -60 18 -137 41 -170 51 -117 38 -260 82 -270 84 -5 1 -15 5 -22 9 -6 4 -33 10 -60 14 -26 3 -50 9 -53 13 -5 8 -174 62 -200 64 -9 1 -20 5 -25 8 -6 3 -26 10 -45 16 -19 5 -42 13 -51 16 -10 5 -19 1 -22 -8z"/> <path d="M400 895 c28 -16 66 -19 74 -6 3 4 -8 7 -24 5 -17 -2 -30 1 -30 6 0 6 -10 10 -22 10 -23 -1 -23 -1 2 -15z"/> <path d="M484 871 c3 -4 23 -13 45 -21 22 -7 38 -17 35 -21 -3 -5 0 -9 5 -9 15 0 14 15 -1 28 -16 12 -90 33 -84 23z"/> <path d="M405 850 c3 -5 11 -10 16 -10 6 0 7 5 4 10 -3 6 -11 10 -16 10 -6 0 -7 -4 -4 -10z"/> <path d="M475 822 c6 -6 24 -13 40 -17 21 -4 25 -3 15 3 -24 15 -67 26 -55 14z"/> <path d="M602 821 c-10 -6 -9 -10 7 -14 14 -3 21 0 21 9 0 16 -9 18 -28 5z"/> <path d="M564 785 c11 -8 27 -15 35 -15 10 1 7 6 -9 15 -33 19 -50 18 -26 0z"/> <path d="M685 787 c17 -8 32 -13 34 -11 7 7 -3 12 -34 19 l-30 6 30 -14z"/> <path d="M628 758 c5 -5 16 -8 23 -6 8 3 3 7 -10 11 -17 4 -21 3 -13 -5z"/> <path d="M760 765 c0 -3 12 -10 26 -15 14 -6 23 -14 20 -19 -4 -5 3 -7 14 -4 11 3 20 0 20 -6 0 -6 14 -11 32 -11 17 0 29 2 27 5 -9 8 -139 55 -139 50z"/> <path d="M2585 747 c-11 -7 -22 -13 -24 -14 -1 -1 0 -7 4 -13 5 -8 15 -4 31 11 13 12 24 18 24 12 0 -6 7 -13 15 -17 19 -7 19 -1 -1 18 -18 19 -22 19 -49 3z"/> <path d="M670 744 c0 -5 72 -37 110 -49 17 -5 22 -4 15 3 -11 11 -125 53 -125 46z"/> <path d="M2525 730 c-3 -5 -2 -10 3 -10 10 0 9 -30 -2 -48 -9 -14 18 -27 37 -18 32 17 62 36 57 37 -34 6 -50 4 -46 -7 3 -7 -2 -15 -10 -18 -23 -9 -23 -9 -17 28 5 33 -9 57 -22 36z"/> <path d="M2490 711 c0 -6 5 -13 10 -16 6 -3 10 1 10 9 0 9 -4 16 -10 16 -5 0 -10 -4 -10 -9z"/> <path d="M2605 710 c3 -5 10 -10 16 -10 5 0 9 5 9 10 0 6 -7 10 -16 10 -8 0 -12 -4 -9 -10z"/> <path d="M2460 703 c0 -6 -3 -20 -6 -30 -7 -17 -6 -17 12 -1 14 14 16 21 6 30 -8 8 -12 9 -12 1z"/> <path d="M935 688 c17 -5 45 -16 63 -25 18 -8 38 -13 45 -10 7 2 -5 10 -25 17 -21 8 -38 16 -38 20 0 3 -17 6 -38 6 l-37 2 30 -10z"/> <path d="M828 673 c7 -3 16 -2 19 1 4 3 -2 6 -13 5 -11 0 -14 -3 -6 -6z"/> <path d="M860 660 c0 -4 10 -10 23 -13 12 -3 33 -8 47 -12 22 -6 23 -5 7 5 -26 17 -77 30 -77 20z"/> <path d="M2390 660 c-8 -4 -27 -13 -42 -20 -15 -7 -25 -17 -22 -21 3 -5 0 -18 -6 -29 -8 -15 -8 -20 1 -20 6 0 13 9 16 20 5 19 23 28 23 12 0 -10 34 -9 38 1 2 4 1 13 -2 20 -5 9 -7 9 -12 0 -8 -17 -24 -16 -24 1 0 18 35 27 49 13 12 -12 15 2 3 19 -4 6 -14 8 -22 4z"/> <path d="M2430 648 c0 -16 5 -28 10 -28 13 0 13 20 0 40 -8 12 -10 9 -10 -12z"/> <path d="M2480 666 c0 -2 7 -9 15 -16 12 -10 15 -10 15 4 0 9 -7 16 -15 16 -8 0 -15 -2 -15 -4z"/> <path d="M2250 634 c0 -8 5 -12 10 -9 6 3 10 10 10 16 0 5 -4 9 -10 9 -5 0 -10 -7 -10 -16z"/> <path d="M2470 640 c0 -5 5 -10 10 -10 6 0 10 5 10 10 0 6 -4 10 -10 10 -5 0 -10 -4 -10 -10z"/> <path d="M972 619 c2 -7 29 -21 59 -31 64 -21 149 -60 149 -68 0 -3 10 -6 21 -7 36 -3 10 12 -96 57 -55 23 -108 46 -119 52 -13 7 -17 6 -14 -3z"/> <path d="M1110 620 c0 -5 -8 -7 -17 -4 -15 5 -16 4 -3 -5 20 -14 27 -14 34 4 3 8 1 15 -4 15 -6 0 -10 -4 -10 -10z"/> <path d="M2280 620 c0 -5 5 -10 10 -10 6 0 10 5 10 10 0 6 -4 10 -10 10 -5 0 -10 -4 -10 -10z"/> <path d="M1175 600 c3 -5 8 -10 11 -10 2 0 4 5 4 10 0 6 -5 10 -11 10 -5 0 -7 -4 -4 -10z"/> <path d="M2680 599 c0 -5 5 -7 10 -4 6 3 10 8 10 11 0 2 -4 4 -10 4 -5 0 -10 -5 -10 -11z"/> <path d="M2225 590 c-3 -5 1 -10 9 -10 9 0 16 5 16 10 0 6 -4 10 -9 10 -6 0 -13 -4 -16 -10z"/> <path d="M2292 580 c0 -14 2 -19 5 -12 2 6 2 18 0 25 -3 6 -5 1 -5 -13z"/> <path d="M1221 586 c2 -2 15 -9 29 -15 24 -11 24 -11 6 3 -16 13 -49 24 -35 12z"/> <path d="M2256 564 c-4 -9 -4 -19 -1 -22 2 -3 7 3 11 12 4 9 4 19 1 22 -2 3 -7 -3 -11 -12z"/> <path d="M2563 566 c5 -16 24 -18 30 -2 4 10 0 14 -14 13 -10 -1 -18 -6 -16 -11z"/> <path d="M1305 550 c-3 -5 1 -10 10 -10 9 0 13 5 10 10 -3 6 -8 10 -10 10 -2 0 -7 -4 -10 -10z"/> <path d="M2619 541 c21 -16 26 -17 39 -4 8 7 11 17 8 21 -4 3 -11 0 -15 -7 -6 -9 -11 -10 -15 -2 -4 6 -15 11 -24 11 -13 0 -12 -4 7 -19z"/> <path d="M1360 526 c14 -9 32 -15 40 -15 13 0 13 1 0 8 -8 5 -26 12 -40 15 l-25 7 25 -15z"/> <path d="M2571 531 c-1 -8 -8 -23 -18 -33 -9 -10 -12 -18 -6 -18 5 0 18 9 27 19 10 11 25 17 34 14 10 -5 13 -3 8 6 -5 7 -14 10 -21 7 -8 -3 -16 0 -19 7 -3 8 -5 7 -5 -2z"/> <path d="M2440 520 c0 -5 -7 -10 -15 -10 -8 0 -15 -4 -15 -9 0 -6 12 -6 30 0 31 11 41 29 15 29 -8 0 -15 -4 -15 -10z"/> <path d="M1270 491 c74 -30 98 -34 45 -7 -27 14 -59 26 -70 25 -12 0 -1 -8 25 -18z"/> <path d="M2473 497 c-37 -17 -27 -39 13 -28 14 4 19 11 15 22 -5 13 -11 14 -28 6z"/> <path d="M2371 491 c-7 -5 -11 -13 -7 -19 3 -6 -1 -17 -9 -26 -9 -9 -11 -17 -5 -21 5 -3 10 -1 10 5 0 6 5 8 10 5 6 -3 15 -3 21 1 8 4 7 9 -2 15 -11 7 -12 12 -1 29 13 21 6 26 -17 11z"/> <path d="M2089 473 c0 -10 -2 -45 -4 -78 -3 -47 -2 -52 5 -25 15 67 19 110 9 115 -5 4 -9 -2 -10 -12z"/> <path d="M2326 475 c-10 -8 -15 -18 -12 -23 3 -5 -5 -21 -19 -36 -13 -14 -21 -26 -16 -26 11 0 46 27 46 37 1 4 7 19 14 31 16 29 12 35 -13 17z"/> <path d="M2412 473 c-10 -4 -10 -8 -1 -19 13 -16 29 -10 29 12 0 15 -6 16 -28 7z"/> <path d="M1500 466 c0 -2 7 -7 16 -10 8 -3 12 -2 9 4 -6 10 -25 14 -25 6z"/> <path d="M2266 461 c-4 -5 -2 -12 3 -15 5 -4 12 -2 15 3 4 5 2 12 -3 15 -5 4 -12 2 -15 -3z"/> <path d="M2455 434 c-60 -20 -123 -42 -140 -49 -44 -19 -85 -27 -85 -16 0 5 7 11 15 15 8 3 15 10 15 16 0 17 -14 11 -33 -16 -14 -19 -16 -28 -7 -39 9 -11 7 -12 -7 -9 -34 9 -73 -13 -73 -41 0 -24 2 -25 23 -13 12 7 25 11 30 10 4 -1 7 3 7 9 0 6 6 9 14 6 8 -3 26 7 40 24 14 16 32 29 39 29 8 0 8 -3 -2 -9 -15 -10 -22 -61 -9 -61 4 0 8 8 8 18 0 17 37 43 65 47 10 1 31 9 70 25 42 18 97 32 102 26 4 -3 12 3 20 13 15 22 40 22 54 0 7 -12 9 -11 9 3 0 9 5 19 10 21 6 3 5 4 -2 3 -7 -1 -19 3 -26 11 -17 17 -9 18 -137 -23z m-50 -44 c-3 -5 -11 -10 -16 -10 -6 0 -7 5 -4 10 3 6 11 10 16 10 6 0 7 -4 4 -10z"/> <path d="M1380 451 c0 -10 46 -31 65 -31 8 0 15 -5 15 -11 0 -5 4 -7 10 -4 10 6 51 -11 60 -26 3 -4 11 -5 18 0 8 4 -22 21 -78 43 -49 20 -90 33 -90 29z"/> <path d="M1548 453 c7 -3 16 -2 19 1 4 3 -2 6 -13 5 -11 0 -14 -3 -6 -6z"/> <path d="M2680 452 c0 -4 9 -13 20 -20 12 -7 18 -17 14 -23 -4 -7 -10 -6 -19 1 -9 8 -15 8 -20 0 -3 -5 -3 -10 2 -10 4 0 1 -4 -7 -10 -8 -5 -12 -12 -8 -15 3 -4 23 4 45 18 21 13 48 27 61 31 12 4 22 12 22 17 0 6 -7 6 -17 1 -24 -12 -66 -8 -71 6 -4 13 -22 17 -22 4z"/> <path d="M1594 435 c11 -8 27 -15 35 -15 11 0 10 4 -5 15 -10 8 -26 14 -34 14 -11 0 -10 -3 4 -14z"/> <path d="M1520 430 c8 -5 20 -10 25 -10 6 0 3 5 -5 10 -8 5 -19 10 -25 10 -5 0 -3 -5 5 -10z"/> <path d="M2125 431 c-3 -5 -1 -12 5 -16 5 -3 10 1 10 9 0 18 -6 21 -15 7z"/> <path d="M2210 425 c0 -8 5 -15 10 -15 6 0 10 7 10 15 0 8 -4 15 -10 15 -5 0 -10 -7 -10 -15z"/> <path d="M2645 432 c-6 -4 -12 -20 -13 -37 -1 -27 0 -28 10 -10 9 15 19 56 14 55 -1 0 -6 -4 -11 -8z"/> <path d="M2156 414 c-8 -21 -8 -34 2 -33 19 3 23 -2 12 -16 -8 -10 -9 -15 -2 -15 10 0 32 31 32 45 0 3 -8 5 -17 3 -12 -2 -17 3 -15 15 4 21 -4 22 -12 1z"/> <path d="M2270 419 c0 -5 5 -7 10 -4 6 3 10 8 10 11 0 2 -4 4 -10 4 -5 0 -10 -5 -10 -11z"/> <path d="M2548 399 c-13 -13 -14 -19 -5 -19 14 0 37 20 37 32 0 13 -14 8 -32 -13z"/> <path d="M2776 411 c-4 -7 -5 -15 -2 -18 9 -9 19 4 14 18 -4 11 -6 11 -12 0z"/> <path d="M2115 390 c-3 -5 -1 -10 5 -10 7 0 9 -8 5 -20 -4 -11 -2 -20 4 -20 13 0 15 47 2 55 -5 3 -12 1 -16 -5z"/> <path d="M2492 378 c-5 -7 -12 -22 -14 -33 -1 -11 -7 -23 -13 -27 -6 -4 -2 -8 8 -8 9 0 17 -4 17 -10 0 -5 7 -10 16 -10 8 0 13 -4 10 -9 -4 -5 4 -6 16 -3 19 5 20 7 5 10 -9 2 -15 8 -12 13 4 5 0 9 -8 9 -19 0 -29 40 -15 57 6 8 9 16 6 18 -3 3 -10 0 -16 -7z"/> <path d="M2573 375 c-8 -9 -9 -16 -3 -20 6 -3 10 -2 10 4 0 6 7 8 15 5 9 -4 15 0 15 10 0 20 -21 20 -37 1z"/> <path d="M1570 370 c0 -5 5 -10 11 -10 5 0 7 5 4 10 -3 6 -8 10 -11 10 -2 0 -4 -4 -4 -10z"/> <path d="M1600 360 c0 -5 5 -10 11 -10 5 0 7 5 4 10 -3 6 -8 10 -11 10 -2 0 -4 -4 -4 -10z"/> <path d="M2443 355 c-7 -8 -13 -19 -13 -25 0 -5 -9 -19 -21 -31 -18 -18 -18 -20 -3 -17 9 1 28 22 41 46 23 41 21 56 -4 27z"/> <path d="M2525 350 c-3 -5 1 -10 9 -10 9 0 16 5 16 10 0 6 -4 10 -9 10 -6 0 -13 -4 -16 -10z"/> <path d="M2381 331 c-10 -18 -6 -31 10 -31 3 0 9 11 11 25 6 29 -7 33 -21 6z"/> <path d="M1660 331 c0 -6 9 -11 19 -11 11 0 22 -4 25 -9 3 -5 36 -19 73 -31 38 -11 75 -24 83 -27 10 -4 11 -2 5 4 -5 5 -48 24 -95 43 -47 18 -91 35 -97 37 -7 3 -13 0 -13 -6z"/> <path d="M2072 310 c0 -14 2 -19 5 -12 2 6 2 18 0 25 -3 6 -5 1 -5 -13z"/> <path d="M2550 315 c0 -8 2 -15 4 -15 2 0 6 7 10 15 3 8 1 15 -4 15 -6 0 -10 -7 -10 -15z"/> <path d="M2313 297 c-24 -26 -44 -85 -24 -73 6 4 11 13 11 21 0 7 11 23 25 36 25 24 32 39 18 39 -5 0 -18 -11 -30 -23z"/> <path d="M2575 310 c-3 -5 -1 -10 4 -10 6 0 11 5 11 10 0 6 -2 10 -4 10 -3 0 -8 -4 -11 -10z"/> <path d="M2237 283 c-12 -12 -7 -22 8 -17 8 4 15 10 15 15 0 11 -14 12 -23 2z"/> <path d="M2340 265 c-13 -14 -19 -25 -13 -25 12 0 48 38 41 45 -2 3 -15 -6 -28 -20z"/> <path d="M2437 284 c-11 -12 -8 -21 9 -28 8 -3 23 2 32 11 16 16 16 16 -5 11 -12 -3 -23 -2 -25 4 -2 5 -7 6 -11 2z"/> <path d="M2070 256 c0 -22 3 -27 11 -19 8 8 8 16 0 30 -9 16 -10 14 -11 -11z"/> <path d="M2187 264 c-4 -4 -4 -10 -1 -15 6 -10 34 0 34 12 0 10 -24 12 -33 3z"/> <path d="M2250 245 c-8 -9 -8 -15 -2 -15 12 0 26 19 19 26 -2 2 -10 -2 -17 -11z"/> <path d="M1940 221 c36 -19 100 -38 89 -26 -7 6 -110 45 -119 45 -3 -1 11 -9 30 -19z"/> <path d="M2154 228 c-11 -18 -14 -58 -4 -58 4 0 10 8 13 18 2 9 8 25 12 35 8 19 -10 24 -21 5z"/> <path d="M2208 223 c-24 -29 -30 -43 -16 -38 15 6 42 45 35 51 -2 2 -11 -4 -19 -13z"/> <path d="M2105 210 c-7 -22 10 -60 27 -60 7 0 6 5 -2 15 -7 8 -10 25 -6 40 7 29 -10 34 -19 5z"/> <path d="M2318 223 c-10 -2 -18 -9 -18 -14 0 -6 8 -5 20 1 11 6 20 13 20 15 0 3 -1 4 -2 4 -2 -1 -11 -3 -20 -6z"/> <path d="M2225 202 c-22 -23 20 -30 49 -9 17 12 16 14 -13 14 -17 0 -33 -3 -36 -5z"/> <path d="M2044 175 c4 -24 16 -30 16 -7 0 12 -4 22 -9 22 -5 0 -8 -7 -7 -15z"/> </g> </svg> 